PathFileType	4	(X/Y/Z)	D:\																																																																			
DataRate	CameraRate	NumFrames	NumMarkers	Units	OrigDataRate	OrigDataStartFrame	OrigNumFrames																																																															
240	240	16	21	mm	240	105	833																																																															
Frame#	Time	Top.Head			Front.Head			Rear.Head			R.Shoulder			R.Elbow			R.Wrist			L.Shoulder			L.Elbow			L.Wrist			Offset1			R.ASIS			L.ASIS			V.Sacral			R.Knee			R.Ankle			R.Toe			R.Heel			L.Knee			L.Ankle			L.Toe			L.Heel			V_Head			V_Pelvis		
		X1	Y1	Z1	X2	Y2	Z2	X3	Y3	Z3	X4	Y4	Z4	X5	Y5	Z5	X6	Y6	Z6	X7	Y7	Z7	X8	Y8	Z8	X9	Y9	Z9	X10	Y10	Z10	X11	Y11	Z11	X12	Y12	Z12	X13	Y13	Z13	X14	Y14	Z14	X15	Y15	Z15	X16	Y16	Z16	X17	Y17	Z17	X18	Y18	Z18	X19	Y19	Z19	X20	Y20	Z20	X21	Y21	Z21	X22	Y22	Z22	X23	Y23	Z23
																																																																						
105	0.433	448.3093	-240.86136	1749.04004	442.09616	-126.09127	1708.50232	443.35925	-315.21805	1687.8634	614.01288	-212.95897	1418.75525	617.10248	-45.4243	1140.87402	411.33231	-10.9417	1301.01917	252.91089	-222.40375	1447.73645	236.66438	-49.80602	1158.29883	450.85535	-54.44467	1301.6792	531.31238	-326.46527	1262.20935	603.25671	-195.2803	915.8363	252.98814	-162.66501	909.05145	437.98904	-318.62573	934.242	649.38647	-227.00763	436.99127	620.18408	-261.68594	93.90697	627.52277	-51.238	47.45253	556.76105	-323.63922	42.61206	233.92198	-182.32141	473.02118	233.49924	-252.00072	99.05904	231.68623	-60.57997	51.84389	286.87332	-323.28308	44.53903	442.72769	-220.65469	1698.18286	421.46829	-248.19762	923.19281
106	0.438	448.25125	-240.80963	1749.05188	442.02267	-125.96851	1708.51453	443.36459	-315.1362	1687.854	614.02081	-212.9157	1418.79761	617.10999	-45.40361	1140.87366	411.33737	-10.87973	1301.02136	252.91193	-222.36809	1447.71863	236.6562	-49.71972	1158.29089	450.8974	-54.34792	1301.71472	531.31219	-326.42465	1262.2262	603.27301	-195.2188	915.84253	252.98831	-162.6438	909.06812	437.9903	-318.56915	934.23193	649.38177	-226.97238	436.9935	620.18341	-261.68271	93.9067	627.52362	-51.24176	47.45066	556.75885	-323.64343	42.60556	233.927	-182.31859	473.02789	233.50026	-251.99844	99.06178	231.68655	-60.58147	51.84324	286.88141	-323.27997	44.54148	442.69363	-220.55237	1698.18433	421.48486	-248.16089	923.19556
107	0.442	448.1976	-240.75534	1749.05859	441.96729	-125.87179	1708.52393	443.37158	-315.06107	1687.84241	614.03284	-212.87917	1418.84314	617.11877	-45.38032	1140.87671	411.33688	-10.82738	1301.0249	252.91417	-222.32755	1447.70142	236.64693	-49.62836	1158.28503	450.92563	-54.28745	1301.73523	531.31537	-326.37842	1262.24194	603.28619	-195.15541	915.84595	252.98645	-162.62566	909.08459	437.99231	-318.51285	934.22394	649.37518	-226.9292	436.99774	620.1814	-261.6799	93.90677	627.52374	-51.24413	47.44787	556.75568	-323.64758	42.59781	233.92937	-182.31789	473.03311	233.50192	-251.99481	99.06618	231.68634	-60.58134	51.84265	286.88992	-323.27872	44.54379	442.66943	-220.46645	1698.18311	421.49991	-248.12424	923.19855
108	0.446	448.14853	-240.6981	1749.05872	441.93106	-125.80014	1708.52893	443.37808	-314.99289	1687.8302	614.04596	-212.84807	1418.88977	617.12988	-45.35227	1140.88428	411.33218	-10.78032	1301.03223	252.91698	-222.28186	1447.68518	236.63797	-49.53333	1158.28162	450.94104	-54.25827	1301.74084	531.32367	-326.32556	1262.25537	603.29651	-195.09163	915.84778	252.98436	-162.60759	909.09973	437.99319	-318.45813	934.21851	649.36615	-226.87801	437.00409	620.17834	-261.67828	93.90728	627.52301	-51.24392	47.44425	556.75189	-323.65048	42.59038	233.93001	-182.3168	473.03818	233.50389	-251.99045	99.07137	231.68571	-60.58007	51.84237	286.89743	-323.2793	44.54572	442.65457	-220.39651	1698.17957	421.51349	-248.08662	923.2019
109	0.45	448.1037	-240.63689	1749.05176	441.91284	-125.75259	1708.52808	443.38153	-314.93002	1687.81946	614.05768	-212.82079	1418.93433	617.14447	-45.31767	1140.89685	411.32452	-10.73238	1301.04626	252.91943	-222.23122	1447.66992	236.63132	-49.43661	1158.27942	450.94479	-54.25476	1301.73206	531.33832	-326.26663	1262.26563	603.30408	-195.02992	915.84918	252.98363	-162.58783	909.11243	437.992	-318.40692	934.21625	649.35486	-226.81995	437.01242	620.17456	-261.67807	93.90845	627.52161	-51.24045	47.44008	556.74823	-323.65167	42.58456	233.92944	-182.31281	473.04388	233.50583	-251.98595	99.07645	231.68491	-60.57841	51.84244	286.90308	-323.28122	44.54724	442.64719	-220.34131	1698.17371	421.52557	-248.04808	923.20563
110	0.454	448.06256	-240.57053	1749.03772	441.90945	-125.72878	1708.52026	443.37921	-314.86951	1687.81189	614.06628	-212.79576	1418.97314	617.16382	-45.27625	1140.91394	411.31519	-10.67743	1301.06995	252.91985	-222.17599	1447.65601	236.62904	-49.34045	1158.27563	450.93753	-54.27193	1301.70898	531.35999	-326.20322	1262.27246	603.30939	-194.97276	915.8504	252.98535	-162.56535	909.12146	437.98877	-318.36108	934.21722	649.34265	-226.75772	437.02237	620.17029	-261.67892	93.9105	627.51984	-51.23427	47.43586	556.74518	-323.65131	42.58091	233.92789	-182.30351	473.05035	233.50751	-251.98169	99.0809	231.68413	-60.57695	51.84286	286.9068	-323.28403	44.54855	442.64435	-220.29915	1698.16614	421.53619	-248.0092	923.20941
111	0.458	448.02411	-240.49864	1749.0166	441.91684	-125.72782	1708.50476	443.3689	-314.80807	1687.80908	614.07086	-212.77176	1419.00452	617.18835	-45.23004	1140.93433	411.30579	-10.61135	1301.10559	252.91582	-222.11646	1447.64307	236.63306	-49.24725	1158.26672	450.91931	-54.30555	1301.67261	531.38867	-326.13739	1262.27686	603.31311	-194.92233	915.85138	252.99001	-162.53912	909.12616	437.98389	-318.32147	934.22131	649.33209	-226.6951	437.03339	620.16559	-261.68036	93.91354	627.5177	-51.22701	47.43237	556.74304	-323.64963	42.57951	233.92567	-182.28769	473.05713	233.50887	-251.97786	99.08453	231.6835	-60.57603	51.84362	286.90851	-323.28735	44.55005	442.64288	-220.26794	1698.15686	421.54526	-247.97057	923.21301
112	0.463	447.987	-240.42184	1748.98877	441.93109	-125.74713	1708.4812	443.3493	-314.7421	1687.81116	614.07092	-212.74774	1419.02844	617.21747	-45.18298	1140.9563	411.29813	-10.5337	1301.15369	252.90511	-222.05241	1447.63062	236.64471	-49.15985	1158.24951	450.89032	-54.35114	1301.62463	531.42328	-326.07144	1262.28015	603.31573	-194.88033	915.85175	252.99733	-162.50778	909.12616	437.97745	-318.28708	934.22821	649.3255	-226.63535	437.04459	620.1604	-261.68201	93.91759	627.51569	-51.22084	47.43035	556.74188	-323.64688	42.58027	233.92368	-182.26573	473.06332	233.50989	-251.97462	99.08728	231.68303	-60.57579	51.84472	286.90799	-323.29047	44.55227	442.6402	-220.2446	1698.14624	421.55234	-247.93248	923.21613
113	0.467	447.95004	-240.34117	1748.95508	441.94794	-125.78065	1708.45032	443.32028	-314.66791	1687.81714	614.06689	-212.72261	1419.04663	617.24939	-45.13913	1140.97778	411.29395	-10.44813	1301.21094	252.88663	-221.98312	1447.6178	236.66429	-49.08165	1158.22217	450.85205	-54.40218	1301.56812	531.46155	-326.0076	1262.28394	603.31763	-194.84758	915.85138	253.0063	-162.47044	909.12134	437.96924	-318.25555	934.23773	649.32355	-226.58031	437.05463	620.15472	-261.68326	93.92234	627.51398	-51.21791	47.43015	556.74164	-323.64334	42.58299	233.92308	-182.23898	473.06781	233.51056	-251.97226	99.08912	231.68274	-60.57616	51.84612	286.90598	-323.29233	44.55569	442.63409	-220.22427	1698.13367	421.55667	-247.89517	923.21893
114	0.471	447.91296	-240.25777	1748.91797	441.96213	-125.81752	1708.41406	443.28226	-314.5824	1687.82397	614.0603	-212.69484	1419.06189	617.28192	-45.10084	1140.99695	411.29431	-10.3605	1301.27039	252.86057	-221.90755	1447.60388	236.69098	-49.01608	1158.18384	450.80783	-54.45004	1301.50842	531.50018	-325.94775	1262.28979	603.31921	-194.82368	915.85065	253.01524	-162.42729	909.11243	437.95889	-318.22421	934.24957	649.3255	-226.53052	437.06219	620.14862	-261.68323	93.92691	627.51251	-51.21972	47.4316	556.74231	-323.63931	42.58729	233.92497	-182.20833	473.06979	233.51088	-251.97113	99.08999	231.68259	-60.57697	51.84769	286.90427	-323.29175	44.56054	442.62219	-220.19995	1698.11902	421.55786	-247.85898	923.22174
115	0.475	447.87708	-240.17267	1748.88269	441.9679	-125.84427	1708.37524	443.23575	-314.4838	1687.82849	614.05334	-212.66272	1419.07788	617.31311	-45.06799	1141.01257	411.30045	-10.27503	1301.32581	252.82845	-221.82539	1447.58801	236.72365	-48.96577	1158.13416	450.76077	-54.48807	1301.45007	531.53595	-325.89304	1262.29883	603.32135	-194.8071	915.85016	253.02235	-162.38022	909.10101	437.94601	-318.19113	934.26331	649.3299	-226.48515	437.06708	620.1424	-261.6814	93.93039	627.51086	-51.22633	47.43391	556.74384	-323.63547	42.59258	233.93007	-182.17372	473.06888	233.51089	-251.97128	99.08999	231.68253	-60.57782	51.84917	286.90472	-323.28784	44.56633	442.60184	-220.16402	1698.10193	421.55606	-247.82468	923.22528
116	0.479	447.84424	-240.08632	1748.85486	441.96109	-125.85011	1708.33655	443.18176	-314.3732	1687.82825	614.04724	-212.62457	1419.09729	617.34198	-45.03893	1141.02441	411.31451	-10.19156	1301.37695	252.79306	-221.73795	1447.56873	236.76096	-48.93236	1158.07336	450.71188	-54.51575	1301.39453	531.56671	-325.84363	1262.31152	603.32465	-194.79562	915.85052	253.02637	-162.33295	909.08899	437.93066	-318.15598	934.27844	649.33521	-226.44209	437.06995	620.1366	-261.67804	93.93243	627.50903	-51.2364	47.43596	556.74609	-323.6326	42.59797	233.93851	-182.13498	473.06528	233.51074	-251.97208	99.08954	231.68251	-60.57825	51.85022	286.90823	-323.28046	44.57182	442.57141	-220.11163	1698.0824	421.55225	-247.79353	923.22992
117	0.483	447.81546	-239.99815	1748.83936	441.94055	-125.82992	1708.30017	443.12219	-314.25443	1687.82227	614.04156	-212.5788	1419.11938	617.3689	-45.01163	1141.03296	411.33945	-10.10585	1301.42944	252.75758	-221.64813	1447.5459	236.80093	-48.91544	1158.00378	450.66	-54.53881	1301.33936	531.59174	-325.7984	1262.32861	603.3299	-194.78705	915.85205	253.02696	-162.28975	909.07782	437.91367	-318.12036	934.29346	649.3399	-226.39867	437.07169	620.13135	-261.67361	93.93304	627.50739	-51.24773	47.43677	556.74878	-323.63126	42.60265	233.9498	-182.09294	473.05969	233.51059	-251.97261	99.08916	231.68251	-60.57792	51.85067	286.91467	-323.27063	44.5758	442.53137	-220.04218	1698.06128	421.54788	-247.76695	923.23553
118	0.488	447.79071	-239.90703	1748.83801	441.90851	-125.78387	1708.26746	443.05933	-314.1322	1687.81177	614.03485	-212.52409	1419.14246	617.39496	-44.9843	1141.0387	411.37714	-10.01325	1301.49011	252.72461	-221.55991	1447.52039	236.84093	-48.91106	1157.93018	450.60391	-54.56473	1301.28149	531.61133	-325.75583	1262.34973	603.3374	-194.77959	915.85474	253.02449	-162.25348	909.06818	437.89667	-318.08664	934.30646	649.3429	-226.35284	437.07263	620.12659	-261.66821	93.93236	627.50592	-51.25779	47.43604	556.7514	-323.63089	42.6064	233.96307	-182.04985	473.05304	233.51062	-251.97214	99.08924	231.6825	-60.5768	51.8507	286.92355	-323.26001	44.57785	442.48392	-219.95804	1698.03967	421.54428	-247.74571	923.24115
119	0.492	447.76965	-239.81207	1748.85107	441.86884	-125.71536	1708.23962	442.99585	-314.01038	1687.79907	614.02606	-212.45995	1419.16467	617.42175	-44.95508	1141.04199	411.42569	-9.91392	1301.55969	252.69572	-221.4769	1447.49402	236.87769	-48.91277	1157.85876	450.54568	-54.59508	1301.22168	531.6264	-325.71448	1262.3739	603.34711	-194.77219	915.8584	253.01945	-162.22478	909.06036	437.88083	-318.05566	934.31598	649.34296	-226.30428	437.073	620.12201	-261.66229	93.93086	627.50433	-51.26464	47.43426	556.75317	-323.63004	42.60949	233.97755	-182.00893	473.04623	233.51085	-251.97032	99.09	231.68248	-60.57502	51.85059	286.93399	-323.24988	44.57831	442.43234	-219.86288	1698.01941	421.54202	-247.72958	923.24597
120	0.496	447.75168	-239.71265	1748.87646	441.8255	-125.62816	1708.21753	442.93542	-313.89215	1687.78674	614.0144	-212.38687	1419.18469	617.45087	-44.92195	1141.04358	411.47946	-9.81328	1301.62988	252.6712	-221.40167	1447.46924	236.9079	-48.91573	1157.79419	450.49075	-54.62294	1301.16577	531.63861	-325.67279	1262.39941	603.35883	-194.76436	915.86261	253.01257	-162.20261	909.05432	437.86636	-318.02609	934.32184	649.33942	-226.25427	437.07266	620.11761	-261.65662	93.9293	627.5025	-51.26754	47.43261	556.75391	-323.62762	42.61246	233.99275	-181.97325	473.03989	233.51132	-251.96718	99.09142	231.68243	-60.5726	51.85043	286.94443	-323.24118	44.57781	442.38046	-219.76016	1698.00208	421.54126	-247.71759	923.24988
